# xmcd CD database file
#
# Track frame offsets:
#	182
#	13797
#	27890
#	51915
#	67442
#	87165
#	101305
#	121352
#	137237
#	158852
#
# Disc length: 2321 seconds
#
# Revision: 4
# Processed by: cddbd v1.5.2PL0 Copyright (c) Steve Scherf et al.
# Submitted via: CDex 1.79
#
DISCID=87090f0a
DTITLE=Boy Howdy - Welcome to Howdywood
DYEAR=1993
DGENRE=Country
TTITLE0=Bring On The Teardrops
TTITLE1=Love Is Easy
TTITLE2=If This Is Love
TTITLE3=In Another Tear From Now
TTITLE4=Thanks For The Ride
TTITLE5=Justine
TTITLE6=If Her Heart Ain`t In Memphis
TTITLE7=Our Love Was Meant To Be
TTITLE8=A Cowboy`s Born With A Broken Heart
TTITLE9=You Really Got Me
EXTD=YEAR: 1993
EXTT0=
EXTT1=
EXTT2=
EXTT3=
EXTT4=
EXTT5=
EXTT6=
EXTT7=
EXTT8=
EXTT9=
PLAYORDER=
